<svg xmlns="http://www.w3.org/2000/svg" width="400" height="154" aria-label="Frontend: React, Next.js, Vue, Svelte, Tailwind CSS, HTML, CSS / SCSS" role="img" viewBox="0 0 400 154"><title>Frontend: React, Next.js, Vue, Svelte, Tailwind CSS, HTML, CSS / SCSS</title><style>.led{animation:blink 1.1s ease-in-out 1}@keyframes blink{35%{opacity:.12}}@media (prefers-reduced-motion:reduce){*{animation:none!important}.pulse,.flash{display:none}}</style><defs><path id="g0" d="M3.19 0H1.18v-10.63h7.64v1.72H3.19v2.85h5.07v1.72H3.19z"/><path id="g1" d="M2.9 0H1.01v-8.15h1.58l.15 1.28h.11q.16-.38.38-.72.23-.33.58-.54.36-.21.87-.21.25 0 .46.05.21.04.32.09v1.78h-.58q-.48 0-.85.13-.37.14-.63.42-.25.27-.38.69-.12.42-.12.98z"/><path id="g2" d="M4.63.19Q3.3.19 2.4-.27q-.9-.46-1.35-1.4Q.6-2.62.6-4.08q0-1.47.45-2.41.45-.93 1.35-1.39.9-.46 2.23-.46 1.35 0 2.24.46.9.46 1.34 1.39.45.94.45 2.41 0 1.46-.45 2.41-.44.94-1.34 1.4-.89.46-2.24.46m0-1.55q.75 0 1.21-.29.45-.29.66-.87.21-.58.21-1.45v-.21q0-.87-.21-1.45-.21-.59-.66-.87-.46-.29-1.21-.29-.74 0-1.2.29-.45.28-.66.87-.21.58-.21 1.45v.21q0 .87.21 1.45.21.58.66.87.46.29 1.2.29"/><path id="g3" d="M2.9 0H1.01v-8.15h1.58l.15 1.08h.11q.28-.37.66-.66.38-.28.87-.45.49-.16 1.08-.16.77 0 1.37.28.59.28.94.9.34.62.34 1.66V0H6.2v-5.16q0-.44-.1-.72-.1-.29-.3-.47-.19-.18-.47-.25-.28-.08-.62-.08-.51 0-.92.25-.41.25-.65.68-.24.43-.24 1.01z"/><path id="g4" d="M3.16.19q-.76 0-1.19-.31-.44-.3-.61-.77-.18-.47-.18-.97V-6.6H.2v-1.55h1.02l.35-2.28h1.5v2.28h1.41v1.55H3.07v4.55q0 .33.17.51.17.18.51.18h.73v1.3Q4.32 0 4.1.05q-.22.06-.47.1-.25.04-.47.04"/><path id="g5" d="M4.51.19q-1.3 0-2.17-.46-.87-.46-1.3-1.4Q.6-2.62.6-4.08q0-1.47.44-2.41.43-.93 1.3-1.39.87-.46 2.17-.46 1.18 0 1.98.44.8.44 1.2 1.36.4.91.4 2.37v.56H2.54q.03.76.23 1.28.21.52.63.77.43.26 1.13.26.35 0 .66-.1.31-.09.55-.28.23-.2.36-.49.13-.29.13-.68h1.86q0 .77-.27 1.35-.27.57-.76.94-.49.37-1.14.56-.65.19-1.41.19M2.57-4.94h3.55q0-.52-.11-.87-.12-.36-.33-.59-.21-.23-.5-.33-.3-.11-.67-.11-.6 0-1.01.21-.42.2-.63.62-.22.41-.3 1.07"/><path id="g6" d="M3.84.19q-.99 0-1.72-.45Q1.4-.71 1-1.66.6-2.6.6-4.09q0-1.47.41-2.41.4-.94 1.11-1.39.72-.45 1.62-.45.55 0 1.02.13.46.12.82.37.36.26.6.63h.1v-4h1.89V0H6.6l-.15-1.08h-.11q-.39.63-1.05.95-.66.32-1.45.32m.59-1.63q.65 0 1.06-.3.4-.29.59-.85.2-.56.2-1.36v-.2q0-.61-.11-1.09-.11-.48-.33-.8-.23-.33-.58-.5-.35-.17-.83-.17-.69 0-1.11.27-.41.27-.58.84-.18.56-.18 1.43v.22q0 .85.18 1.41.17.56.58.83.42.27 1.11.27"/><path id="g7" d="M2.17 0H1.03v-8.23h1.14z"/><path id="g8" d="M1.88 0H.83v-6.31h.85l.1.95h.08q.25-.39.57-.63.32-.24.71-.35.39-.12.83-.12.6 0 1.05.21.45.2.71.66.26.45.26 1.23V0H4.93v-4.21q0-.4-.1-.65-.1-.25-.28-.4-.17-.14-.42-.2-.24-.06-.54-.06-.45 0-.84.22-.4.21-.63.62-.24.41-.24.97z"/><path id="g9" d="M2.3.14q-.49 0-.76-.18-.28-.19-.4-.49-.12-.31-.12-.66v-4.23H.2v-.89h.84l.2-1.77h.84v1.77h1.18v.89H2.08v4.08q0 .3.1.45.11.15.41.15h.67v.69q-.12.06-.28.1l-.35.06q-.17.03-.33.03"/><path id="ga" d="M3.35.14q-.94 0-1.58-.35Q1.13-.56.8-1.3.47-2.03.47-3.16q0-1.14.33-1.86.33-.73.98-1.08.64-.36 1.62-.36.88 0 1.48.35.6.34.91 1.02.31.67.31 1.69v.51H1.56q.02.75.22 1.24.2.49.6.71.39.22.99.22.41 0 .72-.1.3-.1.51-.3.21-.19.32-.45.11-.27.12-.58h1.03q-.01.51-.19.93-.18.43-.53.73-.35.3-.85.47-.5.16-1.15.16M1.58-3.68H5q0-.53-.12-.89-.12-.36-.34-.59-.22-.23-.51-.33-.3-.1-.67-.1-.55 0-.94.2-.38.21-.58.63-.21.42-.26 1.08"/><path id="gb" d="M1.88 0H.83v-6.31h.85l.1 1.04h.08q.1-.3.26-.57.17-.27.46-.44.29-.18.71-.18.18 0 .33.03.15.03.22.07v.97h-.4q-.4 0-.7.14-.29.14-.48.39-.2.25-.29.6-.09.35-.09.74z"/><path id="gc" d="M2.14 0H1.08v-5.42H.14v-.89h.94v-1.01q0-.37.11-.7.11-.33.41-.54.3-.21.84-.21l.33.02q.16.01.31.04l.27.07v.76h-.64q-.3 0-.44.15-.13.15-.13.42v1h1.21v.89H2.14z"/><path id="gd" d="M2.41.14q-.35 0-.69-.08-.35-.08-.65-.28-.3-.19-.48-.53-.18-.34-.18-.86 0-.65.31-1.07.31-.42.87-.65.56-.23 1.33-.32.76-.09 1.66-.09v-.72q0-.35-.12-.6-.12-.26-.42-.39-.31-.14-.87-.14-.54 0-.86.14-.32.13-.44.35-.13.22-.13.48v.18H.72l-.01-.12v-.14q0-.58.32-.97.31-.39.89-.59.58-.2 1.32-.2.79 0 1.33.23.53.23.8.65.27.42.27 1.01v3.42q0 .23.11.32.11.09.26.09h.47v.69l-.37.13q-.21.05-.47.05-.31 0-.52-.12-.2-.13-.31-.35-.11-.22-.14-.5h-.09q-.21.3-.54.52-.33.22-.74.34-.41.12-.89.12m.27-.88q.38 0 .72-.12.34-.12.61-.35.26-.22.42-.53.15-.31.15-.68v-.53q-.97 0-1.65.11-.69.1-1.05.38-.37.28-.37.78 0 .32.15.53.14.2.4.3.27.11.62.11"/><path id="ge" d="M3.23.14q-.91 0-1.53-.35Q1.08-.56.76-1.3.44-2.04.44-3.16.44-4.27.76-5q.32-.74.95-1.1.63-.36 1.55-.36.65 0 1.13.17.47.17.78.49.31.33.46.78.15.46.15 1.05H4.72q0-.55-.15-.91-.15-.35-.48-.53-.32-.17-.85-.17-.53 0-.91.23-.39.24-.59.74-.2.51-.2 1.33v.26q0 .78.19 1.29.2.52.59.76.38.24.93.24.54 0 .87-.19.33-.2.48-.56.15-.36.15-.86h1.03q0 .53-.15.98-.15.46-.46.8-.31.33-.79.52-.48.18-1.15.18"/><path id="gf" d="M3.04.14Q2.39.14 1.9.01q-.5-.13-.82-.38-.32-.25-.49-.6-.17-.35-.17-.79v-.12l.01-.09h1.05l-.02.09v.07q.02.42.23.66.21.24.58.33.37.1.83.1.39 0 .73-.1.33-.1.53-.31.2-.21.2-.54 0-.39-.26-.6-.26-.21-.68-.33l-.87-.26q-.39-.1-.77-.24-.38-.13-.69-.32-.31-.19-.49-.5-.19-.3-.19-.77 0-.42.18-.75.17-.32.49-.55.33-.23.79-.34.46-.11 1.03-.11.6 0 1.05.13.45.13.75.37.3.24.44.55.14.3.14.65v.14l-.01.1H4.44v-.13q0-.24-.13-.46-.12-.23-.43-.36-.3-.14-.84-.14-.35 0-.6.05-.26.06-.42.17-.17.11-.26.26-.08.15-.08.35 0 .31.2.48.21.16.55.27l.74.24.86.25q.43.12.8.32.37.19.59.52.22.33.22.87 0 .5-.19.87-.19.38-.55.62-.35.24-.83.35-.47.11-1.03.11"/><path id="gh" d="M1.88 0H.83v-8.68h1.05v3.16h.09q.24-.32.54-.53.3-.2.66-.3.37-.11.8-.11.6 0 1.05.21.45.2.71.66.26.45.26 1.23V0H4.93v-4.21q0-.4-.1-.65-.1-.25-.28-.4-.17-.14-.42-.2-.24-.06-.54-.06-.45 0-.84.21-.4.21-.63.61-.24.4-.24.99z"/><path id="gi" d="M1.88 0H.83v-8.68h1.05z"/><path id="gj" d="M2.98.14Q2.2.14 1.64-.2 1.08-.55.77-1.29q-.3-.74-.3-1.91 0-1.12.31-1.84.31-.72.86-1.07.56-.35 1.29-.35.42 0 .78.1.36.1.64.3.28.2.5.54h.07v-3.16h1.06V0h-.86l-.09-.9h-.09q-.32.53-.84.79-.51.25-1.12.25m.25-.92q.6 0 .97-.26.37-.27.55-.77.17-.51.17-1.25v-.19q0-.65-.13-1.09-.13-.45-.36-.71-.23-.27-.53-.37-.3-.11-.64-.11-.58 0-.96.23-.37.24-.55.73-.18.5-.18 1.29v.26q0 .81.19 1.31.2.5.56.71.37.22.91.22"/><path id="gk" d="M3.42.14q-.96 0-1.61-.35-.66-.35-1-1.09-.34-.73-.34-1.86 0-1.14.34-1.86.34-.73 1-1.08.65-.36 1.61-.36.96 0 1.61.36.66.35.99 1.08.34.72.34 1.86 0 1.13-.34 1.86-.33.74-.99 1.09-.65.35-1.61.35m0-.88q.61 0 1.02-.24.41-.24.62-.75.21-.51.21-1.29v-.27q0-.79-.21-1.29-.21-.51-.62-.75-.41-.24-1.02-.24-.61 0-1.03.24-.41.24-.61.75-.21.5-.21 1.29v.27q0 .78.21 1.29.2.51.61.75.42.24 1.03.24"/><path id="gl" d="M1.88 0H.83v-8.68h1.05v5.43l2.68-3.06h1.25L3.65-3.86 5.93 0H4.72L2.96-3.08 1.88-1.99z"/><path id="gm" d="M1.88-7.5H.83v-1.18h1.05zm0 7.5H.83v-6.31h1.05z"/><path id="gn" d="M3.83.14q-.64 0-1.14-.25-.51-.26-.83-.79h-.08l-.11.9H.83v-8.68h1.05v3.16h.08q.21-.34.5-.54.29-.2.65-.3.36-.1.77-.1.73 0 1.28.35.55.35.86 1.07.3.72.3 1.84 0 1.17-.3 1.91-.3.74-.85 1.09-.55.34-1.34.34m-.25-.92q.54 0 .9-.22.37-.21.56-.71.19-.5.19-1.31v-.26q0-.79-.18-1.29-.18-.49-.55-.73-.37-.23-.96-.23-.34 0-.64.11-.3.1-.53.37-.23.26-.36.71-.13.44-.13 1.09v.19q0 .74.18 1.25.17.5.55.77.38.26.97.26"/><path id="go" d="M2.3 0H1.01v-8.76h2.75q.82 0 1.44.32.61.32.95.89.34.58.34 1.36 0 .87-.45 1.52-.45.64-1.22.9L6.61 0H5.14l-1.6-3.6H2.3zm0-7.61v2.87h1.46q.64 0 1.03-.39.38-.39.38-1.04 0-.67-.38-1.05-.39-.39-1.03-.39z"/><path id="gp" d="M3.6.12q-.8 0-1.41-.32-.61-.32-.93-.89-.32-.58-.32-1.35v-1.72q0-.78.32-1.35.32-.57.93-.89.61-.32 1.41-.32.82 0 1.42.32.6.32.92.89.32.57.32 1.35v1.17H2.18v.55q0 .74.37 1.12.37.38 1.06.38.57 0 .91-.19.35-.2.44-.59h1.28q-.14.84-.86 1.34-.72.5-1.78.5m1.51-4-.09.11v-.41q0-.72-.36-1.11-.36-.4-1.06-.4-.68 0-1.05.4-.37.39-.37 1.13v.3z"/><path id="gq" d="M2.94.12q-1.03 0-1.63-.53Q.72-.95.72-1.87q0-.94.63-1.47.63-.54 1.73-.54h1.84v-.61q0-.54-.34-.84-.33-.3-.94-.3-.54 0-.9.24-.36.23-.42.61H1.04q.11-.88.83-1.41.71-.53 1.8-.53 1.18 0 1.86.59.69.6.69 1.62V0H4.96v-1.21h-.22l.22-.24q0 .72-.56 1.14-.55.43-1.46.43m.38-1q.7 0 1.15-.35.45-.35.45-.91V-3H3.11q-.51 0-.8.28-.29.27-.29.75 0 .51.34.8.35.29.96.29"/><path id="gr" d="M3.65.12q-.82 0-1.44-.31-.61-.3-.94-.88-.33-.59-.33-1.37v-1.72q0-.8.33-1.37.33-.58.94-.88.62-.31 1.44-.31 1.19 0 1.91.62.72.63.75 1.71H5.02q-.04-.57-.4-.88-.36-.31-.97-.31-.66 0-1.05.37-.38.36-.38 1.03v1.74q0 .68.38 1.05.39.37 1.05.37.61 0 .97-.31.36-.31.4-.88h1.29Q6.28-1.13 5.56-.5q-.72.62-1.91.62"/><path id="gs" d="M6.17 0H4.32q-.9 0-1.4-.49-.51-.49-.51-1.37v-3.56H.59V-6.6h1.82v-1.86h1.3v1.86h2.58v1.18H3.71v3.56q0 .68.66.68h1.8z"/><path id="gt" d="M2.17 0H.97v-8.76H2.6l2.56 7.28-.06-.82q-.04-.48-.05-1l-.02-.94v-4.52h1.2V0H4.6L2.05-7.28l.06.78q.03.46.04.97l.02.93z"/><path id="gu" d="M1.99 0H.52l2.31-3.41L.66-6.6h1.49l1.16 1.82.17.31.13.27.12-.27.17-.31L5.06-6.6h1.49L4.38-3.4 6.68 0H5.2L3.91-1.98l-.17-.32-.13-.29-.14.29-.18.32z"/><path id="gv" d="M3.6.12q-.48 0-.77-.28-.29-.28-.29-.76 0-.5.29-.79Q3.12-2 3.6-2q.49 0 .77.29.29.29.29.79 0 .48-.29.76-.28.28-.77.28"/><path id="gw" d="M2.7 2.16H1.01V.96h1.65Q3.32.96 3.7.6q.37-.36.37-1.02v-4.99h-2.7V-6.6h3.99v6.19q0 1.19-.72 1.88-.72.69-1.94.69m1.96-9.9q-.42 0-.68-.22-.25-.22-.25-.6 0-.38.25-.6.26-.22.68-.22.42 0 .67.22.25.22.25.6 0 .38-.25.6-.25.22-.67.22"/><path id="gx" d="M3.89.11h-.52q-.71 0-1.24-.23-.53-.23-.84-.63-.31-.4-.35-.95h1.29q.05.32.35.52.3.2.79.2h.52q.59 0 .89-.24.3-.24.3-.64 0-.38-.27-.61-.27-.22-.8-.29l-.85-.13Q2.1-3.06 1.6-3.5q-.5-.44-.5-1.3 0-.91.6-1.41.59-.5 1.76-.5h.45q1.03 0 1.65.48.62.47.7 1.26H4.97q-.05-.29-.32-.47-.27-.18-.74-.18h-.45q-.57 0-.83.21-.25.21-.25.62 0 .36.22.54.23.18.71.25l.88.15q1.11.15 1.64.62.52.46.52 1.33 0 .95-.62 1.48-.62.53-1.84.53"/><path id="gy" d="M4.45 0H2.74L.52-8.76h1.33l1.4 5.83.24 1.03.15.8.13-.8q.09-.51.23-1.04l1.39-5.82h1.29z"/><path id="gz" d="M3.59.12q-1.19 0-1.9-.69-.71-.69-.71-1.88V-6.6h1.3v4.15q0 .69.35 1.06.35.38.96.38.62 0 .98-.38.35-.37.35-1.06V-6.6h1.3v4.15q0 1.19-.72 1.88-.71.69-1.91.69"/><path id="g10" d="M3.64.12q-.89 0-1.53-.29-.63-.3-.98-.84-.35-.55-.35-1.31h1.28q0 .6.42.95.42.34 1.17.34.69 0 1.09-.34.4-.33.4-.92 0-.49-.27-.85-.27-.36-.78-.5l-1.1-.32q-.96-.28-1.48-.94-.53-.67-.53-1.59 0-.72.33-1.26.32-.54.92-.84.6-.3 1.42-.3 1.2 0 1.92.65.73.64.74 1.74H5.02q0-.58-.37-.91-.37-.33-1.03-.33-.63 0-.99.31-.36.3-.36.85 0 .5.27.86.27.36.77.5l1.12.34q.96.26 1.47.93.52.67.52 1.61 0 .73-.35 1.29-.35.56-.97.86-.62.31-1.46.31"/><path id="g11" d="M4.45 0h-1.7L.56-6.6h1.32l1.36 4.22q.13.38.23.75.11.38.15.6l.17-.6.21-.75L5.33-6.6h1.31z"/><path id="g12" d="M6.65 0h-2.1q-.61 0-1.07-.25-.46-.24-.71-.7Q2.51-1.4 2.51-2v-5.58H.35v-1.18H3.8V-2q0 .38.22.6.22.22.59.22h2.04z"/><path id="g13" d="M4.25 0h-1.3v-7.57H.61v-1.2h5.98v1.2H4.25z"/><path id="g14" d="M6.67 0H.97v-1.18h2.32v-4.24H1.27V-6.6h3.28v5.42h2.12zM3.79-7.74q-.42 0-.67-.22-.25-.22-.25-.6 0-.38.25-.6.25-.22.67-.22.42 0 .67.22.26.22.26.6 0 .38-.26.6-.25.22-.67.22"/><path id="g15" d="M2.74 0H1.36L.34-6.6h1.09l.61 4.36.09.66.07.61.07-.6.11-.67.68-4.36h1.09l.67 4.36.11.67.07.61.08-.62.1-.66.63-4.36h1.05L5.81 0H4.44l-.65-4.31-.11-.71q-.06-.38-.08-.61l-.09.61-.1.71z"/><path id="g16" d="M2.3 0H1.01v-6.6h1.28v1.26h.31l-.31.3q0-.79.47-1.24.47-.44 1.3-.44.98 0 1.57.63.59.63.59 1.7V0h-1.3v-4.25q0-.65-.35-.99-.35-.35-.95-.35-.61 0-.96.36-.36.37-.36 1.07z"/><path id="g17" d="M3.13.12q-.99 0-1.59-.67-.6-.67-.6-1.81v-1.86q0-1.16.6-1.83.6-.67 1.59-.67.82 0 1.3.45.48.45.48 1.23l-.28-.3h.3L4.9-6.88v-1.88h1.29V0H4.91v-1.26h-.28l.28-.3q0 .78-.48 1.23-.48.45-1.3.45m.45-1.13q.61 0 .96-.38.36-.37.36-1.05v-1.72q0-.68-.36-1.05-.35-.38-.96-.38-.64 0-1 .36-.36.37-.36 1.07v1.72q0 .7.36 1.07.36.36 1 .36"/><path id="g19" d="M3.65.12q-.82 0-1.42-.31-.61-.3-.94-.88-.33-.59-.33-1.37v-3.88q0-.8.33-1.37.33-.58.94-.88.6-.31 1.42-.31.81 0 1.41.31.6.31.93.88.33.57.33 1.37H5.03q0-.69-.36-1.05-.36-.36-1.02-.36-.66 0-1.03.36-.36.36-.36 1.03v3.9q0 .68.36 1.04.37.37 1.03.37.66 0 1.02-.37.36-.36.36-1.04h1.29q0 .78-.33 1.36-.33.58-.93.89-.6.31-1.41.31"/><path id="g1a" d="M2.32 0h-1.3v-8.76h1.3v3.62h2.56v-3.62h1.3V0h-1.3v-3.94H2.32z"/><path id="g1b" d="M2.02 0H.79v-8.76h1.6l.87 2.81q.14.39.23.76.1.37.13.55l.14-.55q.09-.37.21-.76l.84-2.81h1.6V0H5.18v-2.95q0-.57.03-1.26.03-.69.09-1.39l.12-1.34.11-1.12L4.24-3.8H2.99L1.67-8.06l.12 1.08.11 1.32.08 1.39q.04.71.04 1.32z"/><path id="g1c" d="M6.43 0H1.31v-8.76H2.6v7.57h3.83z"/><path id="g1d" d="M2.16 1.32H.82L5.04-9.96h1.34z"/><linearGradient id="face" x1="0" x2="0" y1="0" y2="1"><stop offset="0" stop-color="#151C2A"/><stop offset="1" stop-color="#0F141E"/></linearGradient></defs><rect width="387" height="147" x="6.5" y="3.5" fill="url(#face)" stroke="#232C3D" rx="14"/><path stroke="#FFF" stroke-opacity=".05" d="M22 4.5h356"/><path stroke="#F7BC50" stroke-linecap="round" stroke-width="2" d="M28 3.5h30"/><rect width="34" height="34" x="24" y="21" fill="#F7BC50" fill-opacity=".13" rx="10"/><g fill="none" stroke="#F7BC50" stroke-linecap="round" stroke-linejoin="round" stroke-width="2.27" transform="matrix(.75 0 0 .75 32 29)"><rect width="20" height="16" x="2" y="4" rx="2"/><path d="M10 4v4M2 8h20M6 4v4"/></g><g fill="#E9EDF5" transform="translate(70 35.5)"><use href="#g0"/><use x="9.44" href="#g1"/><use x="14.9" href="#g2"/><use x="24.16" href="#g3"/><use x="33.22" href="#g4"/><use x="38.08" href="#g5"/><use x="46.78" href="#g3"/><use x="55.83" href="#g6"/></g><g fill="#A7B1C5" transform="translate(70 52)"><use href="#g7"/><use x="3.2" href="#g8"/><use x="9.96" href="#g9"/><use x="13.52" href="#ga"/><use x="20.1" href="#gb"/><use x="24.08" href="#gc"/><use x="27.38" href="#gd"/><use x="33.92" href="#ge"/><use x="40.15" href="#ga"/><use x="46.73" href="#gf"/><use x="55.36" href="#g9"/><use x="58.92" href="#gh"/><use x="65.68" href="#gd"/><use x="72.22" href="#g9"/><use x="78.29" href="#gc"/><use x="81.59" href="#ga"/><use x="88.16" href="#ga"/><use x="94.74" href="#gi"/><use x="99.95" href="#gc"/><use x="103.25" href="#gd"/><use x="109.79" href="#gf"/><use x="115.91" href="#g9"/><use x="121.98" href="#gd"/><use x="128.52" href="#g8"/><use x="135.28" href="#gj"/><use x="144.59" href="#gi"/><use x="147.29" href="#gk"/><use x="154.13" href="#gk"/><use x="160.97" href="#gl"/><use x="169.22" href="#gj"/><use x="176.03" href="#ga"/><use x="182.6" href="#gi"/><use x="185.3" href="#gm"/><use x="188" href="#gn"/><use x="194.81" href="#ga"/><use x="201.38" href="#gb"/><use x="205.25" href="#gd"/><use x="211.79" href="#g9"/><use x="215.35" href="#ga"/></g><circle cx="372" cy="38" r="8" fill="#F7BC50" fill-opacity=".16" class="led" style="animation-delay:0.37s"/><circle cx="372" cy="38" r="3.2" fill="#F7BC50" class="led" style="animation-delay:0.37s"/><rect width="55" height="25" x="24.5" y="71.5" fill="#19212F" stroke="#283347" rx="8"/><g fill="#CDD5E3" transform="translate(34 88.3)"><use href="#go"/><use x="7.2" href="#gp"/><use x="14.4" href="#gq"/><use x="21.6" href="#gr"/><use x="28.8" href="#gs"/></g><rect width="70" height="25" x="87.5" y="71.5" fill="#19212F" stroke="#283347" rx="8"/><g fill="#CDD5E3" transform="translate(97 88.3)"><use href="#gt"/><use x="7.2" href="#gp"/><use x="14.4" href="#gu"/><use x="21.6" href="#gs"/><use x="28.8" href="#gv"/><use x="36" href="#gw"/><use x="43.2" href="#gx"/></g><rect width="41" height="25" x="165.5" y="71.5" fill="#19212F" stroke="#283347" rx="8"/><g fill="#CDD5E3" transform="translate(175 88.3)"><use href="#gy"/><use x="7.2" href="#gz"/><use x="14.4" href="#gp"/></g><rect width="63" height="25" x="214.5" y="71.5" fill="#19212F" stroke="#283347" rx="8"/><g fill="#CDD5E3" transform="translate(224 88.3)"><use href="#g10"/><use x="7.2" href="#g11"/><use x="14.4" href="#gp"/><use x="21.6" href="#g12"/><use x="28.8" href="#gs"/><use x="36" href="#gp"/></g><rect width="106" height="25" x="24.5" y="105.5" fill="#19212F" stroke="#283347" rx="8"/><g fill="#CDD5E3" transform="translate(34 122.3)"><use href="#g13"/><use x="7.2" href="#gq"/><use x="14.4" href="#g14"/><use x="21.6" href="#g12"/><use x="28.8" href="#g15"/><use x="36" href="#g14"/><use x="43.2" href="#g16"/><use x="50.4" href="#g17"/><use x="64.8" href="#g19"/><use x="72" href="#g10"/><use x="79.2" href="#g10"/></g><rect width="48" height="25" x="138.5" y="105.5" fill="#19212F" stroke="#283347" rx="8"/><g fill="#CDD5E3" transform="translate(148 122.3)"><use href="#g1a"/><use x="7.2" href="#g13"/><use x="14.4" href="#g1b"/><use x="21.6" href="#g1c"/></g><rect width="92" height="25" x="194.5" y="105.5" fill="#19212F" stroke="#283347" rx="8"/><g fill="#CDD5E3" transform="translate(204 122.3)"><use href="#g19"/><use x="7.2" href="#g10"/><use x="14.4" href="#g10"/><use x="28.8" href="#g1d"/><use x="43.2" href="#g10"/><use x="50.4" href="#g19"/><use x="57.6" href="#g10"/><use x="64.8" href="#g10"/></g></svg>